BagnardSans.ufo
<glyph name="zero" format="1">
  <advance width="645"/>
  <unicode hex="0030"/>
  <outline>
    <contour>
      <point x="322" y="-9" type="curve" smooth="yes"/>
      <point x="116" y="-9"/>
      <point x="35" y="171"/>
      <point x="35" y="360" type="curve" smooth="yes"/>
      <point x="35" y="549"/>
      <point x="116" y="729"/>
      <point x="322" y="729" type="curve" smooth="yes"/>
      <point x="529" y="729"/>
      <point x="610" y="549"/>
      <point x="610" y="360" type="curve" smooth="yes"/>
      <point x="610" y="171"/>
      <point x="529" y="-9"/>
    </contour>
    <contour>
      <point x="322" y="669" type="curve" smooth="yes"/>
      <point x="197" y="669"/>
      <point x="175" y="521"/>
      <point x="175" y="360" type="curve" smooth="yes"/>
      <point x="175" y="199"/>
      <point x="197" y="51"/>
      <point x="322" y="51" type="curve" smooth="yes"/>
      <point x="449" y="51"/>
      <point x="470" y="199"/>
      <point x="470" y="360" type="curve" smooth="yes"/>
      <point x="470" y="521"/>
      <point x="448" y="669"/>
    </contour>
  </outline>
</glyph>
<glyph name="one" format="1">
  <advance width="402"/>
  <unicode hex="0031"/>
  <outline>
    <contour>
      <point x="182" y="0" type="line"/>
      <point x="301" y="0" type="line"/>
      <point x="302" y="750" type="line"/>
      <point x="182" y="660" type="line"/>
    </contour>
    <contour>
      <point x="266" y="582" type="line"/>
      <point x="266" y="723" type="line"/>
      <point x="20" y="562" type="line"/>
    </contour>
  </outline>
</glyph>
<glyph name="four" format="1">
  <advance width="590"/>
  <unicode hex="0034"/>
  <outline>
    <contour>
      <point x="340" y="0" type="line"/>
      <point x="459" y="0" type="line"/>
      <point x="460" y="787" type="line"/>
      <point x="340" y="630" type="line"/>
    </contour>
    <contour>
      <point x="84" y="227" type="line"/>
      <point x="442" y="673" type="line"/>
      <point x="373" y="673" type="line"/>
      <point x="32" y="241" type="line"/>
    </contour>
    <contour>
      <point x="17" y="222" type="line"/>
      <point x="17" y="189" type="line"/>
      <point x="559" y="189" type="line"/>
      <point x="559" y="261" type="line"/>
      <point x="48" y="261" type="line"/>
    </contour>
  </outline>
</glyph>
<glyph name="five" format="1">
  <advance width="536"/>
  <unicode hex="0035"/>
  <outline>
    <contour>
      <point x="113" y="718" type="line"/>
      <point x="163" y="718" type="line"/>
      <point x="124" y="413" type="line"/>
      <point x="75" y="414" type="line"/>
    </contour>
    <contour>
      <point x="123" y="719" type="line"/>
      <point x="483" y="719" type="line"/>
      <point x="466" y="609" type="line"/>
      <point x="128" y="609" type="line"/>
    </contour>
    <contour>
      <point x="83" y="478" type="line"/>
      <point x="115" y="493"/>
      <point x="181" y="497"/>
      <point x="217" y="496" type="curve" smooth="yes"/>
      <point x="366" y="491"/>
      <point x="489" y="421"/>
      <point x="494" y="261" type="curve" smooth="yes"/>
      <point x="499" y="94"/>
      <point x="383" y="-10"/>
      <point x="230" y="-10" type="curve" smooth="yes"/>
      <point x="111" y="-10"/>
      <point x="48" y="71"/>
      <point x="32" y="132" type="curve"/>
      <point x="98" y="95" type="line"/>
      <point x="123" y="63"/>
      <point x="171" y="48"/>
      <point x="209" y="48" type="curve" smooth="yes"/>
      <point x="316" y="48"/>
      <point x="385" y="120"/>
      <point x="381" y="222" type="curve" smooth="yes"/>
      <point x="377" y="335"/>
      <point x="280" y="380"/>
      <point x="191" y="381" type="curve" smooth="yes"/>
      <point x="163" y="381"/>
      <point x="95" y="375"/>
      <point x="67" y="354" type="curve"/>
    </contour>
  </outline>
</glyph>
<glyph name="seven" format="1">
  <advance width="456"/>
  <unicode hex="0037"/>
  <outline>
    <contour>
      <point x="395" y="685" type="line"/>
      <point x="36" y="0" type="line"/>
      <point x="190" y="0" type="line"/>
      <point x="422" y="621" type="line"/>
    </contour>
    <contour>
      <point x="487" y="733" type="line"/>
      <point x="9" y="733" type="line"/>
      <point x="10" y="623" type="line"/>
      <point x="423" y="623" type="line"/>
    </contour>
  </outline>
</glyph>
<glyph name="semicolon" format="1">
  <advance width="311"/>
  <unicode hex="003B"/>
  <outline>
    <contour>
      <point x="155.439" y="488.561" type="curve" smooth="yes"/>
      <point x="169.582" y="488.561"/>
      <point x="241" y="415.729"/>
      <point x="241" y="403" type="curve" smooth="yes"/>
      <point x="241" y="387.444"/>
      <point x="168.168" y="317.44"/>
      <point x="155.439" y="317.44" type="curve" smooth="yes"/>
      <point x="144.126" y="317.44"/>
      <point x="69.8799" y="390.272"/>
      <point x="69.8799" y="403" type="curve" smooth="yes"/>
      <point x="69.8799" y="414.313"/>
      <point x="141.298" y="488.561"/>
    </contour>
    <contour>
      <point x="146" y="-29" type="curve" smooth="yes"/>
      <point x="146" y="-79"/>
      <point x="111" y="-119"/>
      <point x="94" y="-142" type="curve" smooth="yes"/>
      <point x="89" y="-148"/>
      <point x="89" y="-156"/>
      <point x="91" y="-160" type="curve" smooth="yes"/>
      <point x="93" y="-163"/>
      <point x="104" y="-166"/>
      <point x="117" y="-159" type="curve"/>
      <point x="142" y="-143"/>
      <point x="244" y="-66"/>
      <point x="244" y="52" type="curve" smooth="yes"/>
      <point x="244" y="121"/>
      <point x="199" y="162"/>
      <point x="155" y="162" type="curve" smooth="yes"/>
      <point x="104" y="162"/>
      <point x="70" y="125"/>
      <point x="70" y="82" type="curve" smooth="yes"/>
      <point x="70" y="28"/>
      <point x="109" y="13"/>
      <point x="119" y="7" type="curve"/>
      <point x="127" y="6"/>
      <point x="146" y="-4"/>
    </contour>
  </outline>
</glyph>
<glyph name="at" format="1">
  <advance width="819"/>
  <unicode hex="0040"/>
  <outline>
    <contour>
      <point x="612" y="539" type="line"/>
      <point x="517" y="509" type="line"/>
      <point x="469" y="295" type="line"/>
      <point x="468" y="252" type="line"/>
      <point x="552" y="254" type="line"/>
    </contour>
    <contour>
      <point x="359" y="137" type="curve" smooth="yes"/>
      <point x="407" y="137"/>
      <point x="465" y="165"/>
      <point x="481" y="236" type="curve"/>
      <point x="460" y="205"/>
      <point x="441" y="198"/>
      <point x="414" y="198" type="curve" smooth="yes"/>
      <point x="374" y="198"/>
      <point x="325" y="234"/>
      <point x="341" y="346" type="curve"/>
      <point x="356" y="424"/>
      <point x="401" y="509"/>
      <point x="464" y="509" type="curve" smooth="yes"/>
      <point x="487" y="509"/>
      <point x="512" y="474"/>
      <point x="507" y="396" type="curve"/>
      <point x="564" y="379" type="line"/>
      <point x="583" y="523"/>
      <point x="519" y="553"/>
      <point x="472" y="553" type="curve" smooth="yes"/>
      <point x="355" y="553"/>
      <point x="260" y="455"/>
      <point x="239" y="341" type="curve" smooth="yes"/>
      <point x="211" y="197"/>
      <point x="285" y="137"/>
    </contour>
    <contour>
      <point x="35" y="271" type="curve" smooth="yes"/>
      <point x="35" y="127"/>
      <point x="142" y="-17"/>
      <point x="343" y="-17" type="curve" smooth="yes"/>
      <point x="416" y="-17"/>
      <point x="520" y="-7"/>
      <point x="609" y="42" type="curve"/>
      <point x="597" y="70" type="line"/>
      <point x="555" y="48"/>
      <point x="460" y="24"/>
      <point x="402" y="24" type="curve" smooth="yes"/>
      <point x="228" y="24"/>
      <point x="139" y="167"/>
      <point x="139" y="288" type="curve" smooth="yes"/>
      <point x="139" y="592"/>
      <point x="366" y="661"/>
      <point x="476" y="660" type="curve" smooth="yes"/>
      <point x="587" y="659"/>
      <point x="690" y="561"/>
      <point x="690" y="404" type="curve" smooth="yes"/>
      <point x="690" y="236"/>
      <point x="623" y="180"/>
      <point x="579" y="180" type="curve" smooth="yes"/>
      <point x="542" y="180"/>
      <point x="547" y="223"/>
      <point x="550" y="242" type="curve" smooth="yes"/>
      <point x="552" y="253"/>
      <point x="553" y="265"/>
      <point x="558" y="279" type="curve"/>
      <point x="469" y="295" type="line"/>
      <point x="464" y="275"/>
      <point x="459" y="228"/>
      <point x="459" y="213" type="curve" smooth="yes"/>
      <point x="459" y="167"/>
      <point x="495" y="135"/>
      <point x="544" y="135" type="curve" smooth="yes"/>
      <point x="621" y="135"/>
      <point x="784" y="182"/>
      <point x="784" y="415" type="curve" smooth="yes"/>
      <point x="784" y="625"/>
      <point x="618" y="700"/>
      <point x="483" y="700" type="curve" smooth="yes"/>
      <point x="268" y="700"/>
      <point x="35" y="543"/>
    </contour>
  </outline>
</glyph>
<glyph name="B" format="1">
  <advance width="751"/>
  <unicode hex="0042"/>
  <outline>
    <contour>
      <point x="154" y="0" type="line"/>
      <point x="294" y="0" type="line"/>
      <point x="294" y="698" type="line"/>
      <point x="154" y="698" type="line"/>
    </contour>
    <contour>
      <point x="154" y="718" type="line"/>
      <point x="154" y="718"/>
      <point x="154" y="667"/>
      <point x="154" y="667" type="curve"/>
      <point x="306" y="667" type="line" smooth="yes"/>
      <point x="367.85" y="667"/>
      <point x="415" y="668"/>
      <point x="452" y="648" type="curve"/>
      <point x="491" y="629"/>
      <point x="512" y="581"/>
      <point x="512" y="526" type="curve" smooth="yes"/>
      <point x="512" y="390"/>
      <point x="386" y="393"/>
      <point x="270" y="393" type="curve"/>
      <point x="270" y="349" type="line"/>
      <point x="463" y="363" type="line"/>
      <point x="621" y="401"/>
      <point x="661" y="469"/>
      <point x="661" y="551" type="curve" smooth="yes"/>
      <point x="661" y="645"/>
      <point x="584" y="719"/>
      <point x="454" y="719" type="curve" smooth="yes"/>
      <point x="232" y="718" type="line"/>
    </contour>
    <contour>
      <point x="228" y="718" type="move"/>
    </contour>
    <contour>
      <point x="262" y="383" type="line"/>
      <point x="262" y="383"/>
      <point x="262" y="342"/>
      <point x="262" y="342" type="curve"/>
      <point x="346" y="342" type="line" smooth="yes"/>
      <point x="477" y="342"/>
      <point x="552" y="288"/>
      <point x="552" y="191" type="curve" smooth="yes"/>
      <point x="552" y="95"/>
      <point x="473" y="53"/>
      <point x="388" y="51" type="curve"/>
      <point x="290" y="51" type="line"/>
      <point x="290" y="0" type="line"/>
      <point x="290" y="0"/>
      <point x="361" y="0"/>
      <point x="463" y="0" type="curve" smooth="yes"/>
      <point x="625" y="0"/>
      <point x="701" y="90"/>
      <point x="701" y="186" type="curve" smooth="yes"/>
      <point x="701" y="318"/>
      <point x="594" y="374"/>
      <point x="464" y="374" type="curve" smooth="yes"/>
      <point x="358" y="374"/>
      <point x="272" y="383"/>
      <point x="272" y="383" type="curve"/>
    </contour>
  </outline>
</glyph>
<glyph name="C" format="1">
  <advance width="731"/>
  <unicode hex="0043"/>
  <outline>
    <contour>
      <point x="645" y="95" type="curve"/>
      <point x="645" y="174" type="line"/>
      <point x="615" y="108"/>
      <point x="553" y="48"/>
      <point x="412" y="48" type="curve" smooth="yes"/>
      <point x="269" y="48"/>
      <point x="207" y="196"/>
      <point x="207" y="368" type="curve" smooth="yes"/>
      <point x="207" y="540"/>
      <point x="290" y="665"/>
      <point x="410" y="665" type="curve" smooth="yes"/>
      <point x="539" y="665"/>
      <point x="569" y="612"/>
      <point x="644" y="485" type="curve"/>
      <point x="644" y="571" type="line"/>
      <point x="601" y="681"/>
      <point x="492" y="734"/>
      <point x="415" y="734" type="curve" smooth="yes"/>
      <point x="196" y="734"/>
      <point x="50" y="589"/>
      <point x="50" y="337" type="curve" smooth="yes"/>
      <point x="50" y="135"/>
      <point x="183" y="-18"/>
      <point x="390" y="-18" type="curve" smooth="yes"/>
      <point x="486" y="-18"/>
      <point x="591" y="12"/>
    </contour>
  </outline>
</glyph>
<glyph name="E" format="1">
  <advance width="710"/>
  <unicode hex="0045"/>
  <outline>
    <contour>
      <point x="129" y="661" type="line"/>
      <point x="636" y="661" type="line"/>
      <point x="636" y="718" type="line"/>
      <point x="129" y="718" type="line"/>
    </contour>
    <contour>
      <point x="129" y="0" type="line"/>
      <point x="650" y="0" type="line"/>
      <point x="650" y="62" type="line"/>
      <point x="129" y="62" type="line"/>
    </contour>
    <contour>
      <point x="266" y="336" type="line"/>
      <point x="398" y="336" type="line"/>
      <point x="492" y="336" type="line"/>
      <point x="492" y="397" type="line"/>
      <point x="398" y="397" type="line"/>
      <point x="266" y="397" type="line"/>
    </contour>
    <contour>
      <point x="129" y="32" type="line"/>
      <point x="269" y="32" type="line"/>
      <point x="269" y="698" type="line"/>
      <point x="129" y="698" type="line"/>
    </contour>
  </outline>
</glyph>
<glyph name="F" format="1">
  <advance width="636"/>
  <unicode hex="0046"/>
  <outline>
    <contour>
      <point x="129" y="661" type="line"/>
      <point x="618" y="661" type="line"/>
      <point x="618" y="718" type="line"/>
      <point x="129" y="718" type="line"/>
    </contour>
    <contour>
      <point x="129" y="0" type="line"/>
      <point x="269" y="0" type="line"/>
      <point x="269" y="698" type="line"/>
      <point x="129" y="698" type="line"/>
    </contour>
    <contour>
      <point x="266" y="326" type="line"/>
      <point x="398" y="326" type="line"/>
      <point x="492" y="326" type="line"/>
      <point x="492" y="387" type="line"/>
      <point x="398" y="387" type="line"/>
      <point x="266" y="387" type="line"/>
    </contour>
  </outline>
</glyph>
<glyph name="I" format="1">
  <advance width="403"/>
  <unicode hex="0049"/>
  <outline>
    <contour>
      <point x="129" y="0" type="line"/>
      <point x="269" y="0" type="line"/>
      <point x="269" y="718" type="line"/>
      <point x="129" y="718" type="line"/>
    </contour>
  </outline>
</glyph>
<glyph name="K" format="1">
  <advance width="743"/>
  <unicode hex="004B"/>
  <outline>
    <contour>
      <point x="129" y="0" type="line"/>
      <point x="269" y="0" type="line"/>
      <point x="269" y="718" type="line"/>
      <point x="129" y="718" type="line"/>
    </contour>
    <contour>
      <point x="622" y="719" type="move"/>
    </contour>
    <contour>
      <point x="624" y="719" type="move"/>
    </contour>
    <contour>
      <point x="256" y="343" type="line"/>
      <point x="259" y="271" type="line"/>
      <point x="699" y="718" type="line"/>
      <point x="619" y="718" type="line"/>
    </contour>
    <contour>
      <point x="286" y="366" type="line"/>
      <point x="332" y="311"/>
      <point x="346" y="295"/>
      <point x="422" y="199" type="curve" smooth="yes"/>
      <point x="508" y="91"/>
      <point x="656" y="-46"/>
      <point x="771" y="-46" type="curve"/>
      <point x="415" y="467" type="line"/>
    </contour>
  </outline>
</glyph>
<glyph name="M" format="1">
  <advance width="1025"/>
  <unicode hex="004D"/>
  <outline>
    <contour>
      <point x="179" y="0" type="line"/>
      <point x="179" y="718" type="line"/>
      <point x="117" y="718" type="line"/>
      <point x="117" y="0" type="line"/>
    </contour>
    <contour>
      <point x="751" y="0" type="line"/>
      <point x="891" y="0" type="line"/>
      <point x="891" y="718" type="line"/>
      <point x="751" y="718" type="line"/>
    </contour>
    <contour>
      <point x="256" y="718" type="line"/>
      <point x="166" y="718" type="line"/>
      <point x="166" y="600" type="line"/>
      <point x="463" y="-12" type="line"/>
      <point x="499" y="61" type="line"/>
      <point x="535" y="139" type="line"/>
    </contour>
    <contour>
      <point x="430" y="61" type="line"/>
      <point x="498" y="61" type="line"/>
      <point x="813" y="718" type="line"/>
      <point x="751" y="718" type="line"/>
    </contour>
  </outline>
</glyph>
<glyph name="O" format="1">
  <advance width="811"/>
  <unicode hex="004F"/>
  <outline>
    <contour>
      <point x="765" y="359" type="curve" smooth="yes"/>
      <point x="766" y="126"/>
      <point x="625" y="-19"/>
      <point x="405" y="-23" type="curve"/>
      <point x="186" y="-20"/>
      <point x="45" y="124"/>
      <point x="45" y="357" type="curve" smooth="yes"/>
      <point x="45" y="583"/>
      <point x="189" y="739"/>
      <point x="405" y="739" type="curve" smooth="yes"/>
      <point x="633" y="739"/>
      <point x="764" y="573"/>
    </contour>
    <contour>
      <point x="405" y="680" type="curve" smooth="yes"/>
      <point x="257" y="681"/>
      <point x="202" y="520"/>
      <point x="202" y="358" type="curve" smooth="yes"/>
      <point x="202" y="195"/>
      <point x="256" y="36"/>
      <point x="405" y="36" type="curve" smooth="yes"/>
      <point x="553" y="36"/>
      <point x="608" y="196"/>
      <point x="608" y="358" type="curve" smooth="yes"/>
      <point x="608" y="519"/>
      <point x="553" y="679"/>
    </contour>
  </outline>
</glyph>
<glyph name="T" format="1">
  <advance width="684"/>
  <unicode hex="0054"/>
  <outline>
    <contour>
      <point x="11" y="663" type="line"/>
      <point x="674" y="663" type="line"/>
      <point x="674" y="720" type="line"/>
      <point x="11" y="720" type="line"/>
    </contour>
    <contour>
      <point x="480" y="720" type="move"/>
    </contour>
    <contour>
      <point x="204" y="720" type="move"/>
    </contour>
    <contour>
      <point x="271" y="0" type="line"/>
      <point x="411" y="0" type="line"/>
      <point x="411" y="698" type="line"/>
      <point x="271" y="698" type="line"/>
    </contour>
  </outline>
</glyph>
<glyph name="U" format="1">
  <advance width="805"/>
  <unicode hex="0055"/>
  <outline>
    <contour>
      <point x="114" y="286" type="line"/>
      <point x="114" y="105"/>
      <point x="180" y="-26"/>
      <point x="413" y="-26" type="curve" smooth="yes"/>
      <point x="645" y="-26"/>
      <point x="701" y="144"/>
      <point x="701" y="310" type="curve"/>
      <point x="701" y="718" type="line"/>
      <point x="701" y="718"/>
      <point x="627" y="718"/>
      <point x="627" y="718" type="curve"/>
      <point x="628" y="320" type="line"/>
      <point x="628" y="124"/>
      <point x="557" y="52"/>
      <point x="443" y="52" type="curve" smooth="yes"/>
      <point x="297" y="52"/>
      <point x="264" y="147"/>
      <point x="264" y="265" type="curve"/>
      <point x="264" y="718" type="line"/>
      <point x="114" y="718" type="line"/>
    </contour>
  </outline>
</glyph>
<glyph name="V" format="1">
  <advance width="827"/>
  <unicode hex="0056"/>
  <outline>
    <contour>
      <point x="236" y="718" type="line"/>
      <point x="68" y="718" type="line"/>
      <point x="419" y="-52" type="line"/>
      <point x="450" y="21" type="line"/>
      <point x="488" y="120" type="line"/>
    </contour>
    <contour>
      <point x="175" y="718" type="move"/>
    </contour>
    <contour>
      <point x="178" y="718" type="move"/>
    </contour>
    <contour>
      <point x="389" y="21" type="line"/>
      <point x="449" y="21" type="line"/>
      <point x="748" y="718" type="line"/>
      <point x="678" y="718" type="line"/>
    </contour>
    <contour>
      <point x="681" y="718" type="move"/>
    </contour>
    <contour>
      <point x="703" y="718" type="move"/>
    </contour>
  </outline>
</glyph>
<glyph name="W" format="1">
  <advance width="1104"/>
  <unicode hex="0057"/>
  <outline>
    <contour>
      <point x="207" y="721" type="line"/>
      <point x="53" y="721" type="line"/>
      <point x="361" y="-52" type="line"/>
      <point x="389" y="21" type="line"/>
      <point x="427" y="130" type="line"/>
    </contour>
    <contour>
      <point x="154" y="721" type="move"/>
    </contour>
    <contour>
      <point x="336" y="44" type="line"/>
      <point x="388" y="21" type="line"/>
      <point x="624" y="720" type="line"/>
      <point x="556" y="720" type="line"/>
    </contour>
    <contour>
      <point x="641" y="720" type="line"/>
      <point x="488" y="720" type="line"/>
      <point x="776" y="-52" type="line"/>
      <point x="803" y="21" type="line"/>
      <point x="842" y="127" type="line"/>
    </contour>
    <contour>
      <point x="585" y="721" type="move"/>
    </contour>
    <contour>
      <point x="588" y="721" type="move"/>
    </contour>
    <contour>
      <point x="753" y="44" type="line"/>
      <point x="803" y="21" type="line"/>
      <point x="1061" y="721" type="line"/>
      <point x="993" y="721" type="line"/>
    </contour>
    <contour>
      <point x="1002" y="721" type="move"/>
    </contour>
    <contour>
      <point x="1022" y="721" type="move"/>
    </contour>
  </outline>
</glyph>
<glyph name="Y" format="1">
  <advance width="734"/>
  <unicode hex="0059"/>
  <outline>
    <contour>
      <point x="418" y="234" type="line"/>
      <point x="706" y="717" type="line"/>
      <point x="636" y="717" type="line"/>
      <point x="384" y="277" type="line"/>
    </contour>
    <contour>
      <point x="315" y="260" type="line"/>
      <point x="440" y="322" type="line"/>
      <point x="223" y="718" type="line"/>
      <point x="65" y="718" type="line"/>
    </contour>
    <contour>
      <point x="309" y="0" type="line"/>
      <point x="449" y="0" type="line"/>
      <point x="449" y="348" type="line"/>
      <point x="309" y="348" type="line"/>
    </contour>
  </outline>
</glyph>
<glyph name="Z" format="1">
  <advance width="716"/>
  <unicode hex="005A"/>
  <outline>
    <contour>
      <point x="13" y="0" type="line"/>
      <point x="169" y="0" type="line"/>
      <point x="641" y="718" type="line"/>
      <point x="474" y="718" type="line"/>
    </contour>
    <contour>
      <point x="89" y="0" type="line"/>
      <point x="638" y="0" type="line"/>
      <point x="638" y="74" type="line"/>
      <point x="158" y="73" type="line"/>
    </contour>
    <contour>
      <point x="85" y="651" type="line"/>
      <point x="472" y="651" type="line"/>
      <point x="637" y="718" type="line"/>
      <point x="85" y="718" type="line"/>
    </contour>
    <contour>
      <point x="85" y="718" type="move"/>
    </contour>
    <contour>
      <point x="637" y="0" type="move"/>
    </contour>
  </outline>
</glyph>
<glyph name="a" format="1">
  <advance width="512"/>
  <unicode hex="0061"/>
  <outline>
    <contour>
      <point x="289" y="494" type="curve" smooth="yes"/>
      <point x="273" y="494" type="line" smooth="yes"/>
      <point x="170" y="494"/>
      <point x="86" y="428"/>
      <point x="75" y="349" type="curve"/>
      <point x="179" y="373" type="line"/>
      <point x="187" y="414"/>
      <point x="212" y="446"/>
      <point x="256" y="446" type="curve" smooth="yes"/>
      <point x="308" y="446"/>
      <point x="342" y="407"/>
      <point x="343" y="334" type="curve"/>
      <point x="339" y="90" type="line"/>
      <point x="368" y="-16" type="line"/>
      <point x="457" y="11" type="line"/>
      <point x="457" y="320" type="line"/>
      <point x="457" y="454"/>
      <point x="376" y="494"/>
    </contour>
    <contour>
      <point x="360" y="277" type="line"/>
      <point x="305" y="270"/>
      <point x="254" y="276"/>
      <point x="180" y="253" type="curve" smooth="yes"/>
      <point x="118" y="234"/>
      <point x="55" y="180"/>
      <point x="55" y="100" type="curve" smooth="yes"/>
      <point x="55" y="55"/>
      <point x="84" y="-14"/>
      <point x="177" y="-14" type="curve" smooth="yes"/>
      <point x="264" y="-14"/>
      <point x="356" y="51"/>
      <point x="360" y="132" type="curve"/>
      <point x="343" y="145" type="line"/>
      <point x="324" y="86"/>
      <point x="263" y="61"/>
      <point x="225" y="61" type="curve" smooth="yes"/>
      <point x="199" y="61"/>
      <point x="174" y="79"/>
      <point x="174" y="109" type="curve" smooth="yes"/>
      <point x="174" y="147"/>
      <point x="188" y="184"/>
      <point x="242" y="208" type="curve"/>
      <point x="298" y="230"/>
      <point x="327" y="239"/>
      <point x="363" y="245" type="curve"/>
    </contour>
  </outline>
</glyph>
<glyph name="g" format="1">
  <advance width="529"/>
  <unicode hex="0067"/>
  <outline>
    <contour>
      <point x="257" y="-5" type="line"/>
      <point x="189" y="-12"/>
      <point x="131" y="-62"/>
      <point x="130" y="-95" type="curve" smooth="yes"/>
      <point x="128" y="-149"/>
      <point x="192" y="-192"/>
      <point x="264" y="-192" type="curve" smooth="yes"/>
      <point x="341" y="-192"/>
      <point x="397" y="-159"/>
      <point x="397" y="-114" type="curve" smooth="yes"/>
      <point x="397" y="-72"/>
      <point x="351" y="-48"/>
      <point x="315" y="-31" type="curve" smooth="yes"/>
      <point x="261" y="-6"/>
      <point x="147" y="42"/>
      <point x="121" y="54" type="curve"/>
      <point x="121" y="86" type="line"/>
      <point x="201" y="131" type="line"/>
      <point x="286" y="98"/>
      <point x="378" y="64"/>
      <point x="431" y="37" type="curve" smooth="yes"/>
      <point x="488" y="8"/>
      <point x="504" y="-27"/>
      <point x="504" y="-69" type="curve" smooth="yes"/>
      <point x="504" y="-154"/>
      <point x="396" y="-234"/>
      <point x="247" y="-234" type="curve" smooth="yes"/>
      <point x="126" y="-234"/>
      <point x="20" y="-192"/>
      <point x="20" y="-111" type="curve" smooth="yes"/>
      <point x="20" y="-31"/>
      <point x="138" y="6"/>
      <point x="214" y="16" type="curve"/>
    </contour>
    <contour>
      <point x="268" y="179" type="line"/>
      <point x="316" y="170" type="line"/>
      <point x="212" y="100" type="line"/>
      <point x="169" y="113" type="line"/>
    </contour>
    <contour>
      <point x="53" y="321" type="curve" smooth="yes"/>
      <point x="53" y="423"/>
      <point x="150" y="489"/>
      <point x="278" y="489" type="curve" smooth="yes"/>
      <point x="405" y="489"/>
      <point x="484" y="423"/>
      <point x="484" y="321" type="curve" smooth="yes"/>
      <point x="484" y="218"/>
      <point x="396" y="153"/>
      <point x="268" y="153" type="curve" smooth="yes"/>
      <point x="141" y="153"/>
      <point x="53" y="218"/>
    </contour>
    <contour>
      <point x="184" y="321" type="curve" smooth="yes"/>
      <point x="184" y="243"/>
      <point x="209" y="196"/>
      <point x="269" y="196" type="curve" smooth="yes"/>
      <point x="329" y="196"/>
      <point x="354" y="243"/>
      <point x="354" y="321" type="curve" smooth="yes"/>
      <point x="354" y="400"/>
      <point x="329" y="447"/>
      <point x="269" y="447" type="curve" smooth="yes"/>
      <point x="209" y="447"/>
      <point x="184" y="400"/>
    </contour>
  </outline>
</glyph>
<glyph name="h" format="1">
  <advance width="605"/>
  <unicode hex="0068"/>
  <outline>
    <contour>
      <point x="88" y="0" type="line"/>
      <point x="207" y="0" type="line"/>
      <point x="208" y="750" type="line"/>
      <point x="88" y="670" type="line"/>
    </contour>
    <contour>
      <point x="306" y="417" type="curve" smooth="yes"/>
      <point x="342" y="417"/>
      <point x="367" y="406"/>
      <point x="381" y="384" type="curve" smooth="yes"/>
      <point x="396" y="361"/>
      <point x="399" y="338"/>
      <point x="399" y="285" type="curve" smooth="yes"/>
      <point x="398" y="0" type="line"/>
      <point x="518" y="0" type="line"/>
      <point x="519" y="315" type="line" smooth="yes"/>
      <point x="519" y="429"/>
      <point x="452" y="489"/>
      <point x="357" y="489" type="curve" smooth="yes"/>
      <point x="263" y="489"/>
      <point x="214" y="443"/>
      <point x="182" y="368" type="curve"/>
      <point x="205" y="319" type="line"/>
      <point x="205" y="319"/>
      <point x="210" y="417"/>
    </contour>
  </outline>
</glyph>
<glyph name="i" format="1">
  <advance width="305"/>
  <unicode hex="0069"/>
  <outline>
    <contour>
      <point x="157.439" y="721.561" type="curve" smooth="yes"/>
      <point x="171.582" y="721.561"/>
      <point x="243" y="648.729"/>
      <point x="243" y="636" type="curve" smooth="yes"/>
      <point x="243" y="620.444"/>
      <point x="170.168" y="550.44"/>
      <point x="157.439" y="550.44" type="curve" smooth="yes"/>
      <point x="146.126" y="550.44"/>
      <point x="71.8799" y="623.272"/>
      <point x="71.8799" y="636" type="curve" smooth="yes"/>
      <point x="71.8799" y="647.313"/>
      <point x="143.298" y="721.561"/>
    </contour>
    <contour>
      <point x="96" y="0" type="line"/>
      <point x="216" y="0" type="line"/>
      <point x="216" y="509" type="line"/>
      <point x="96" y="436" type="line"/>
    </contour>
    <contour>
      <point x="150" y="0" type="curve"/>
      <point x="150" y="0"/>
      <point x="150" y="0"/>
    </contour>
    <contour>
      <point x="158" y="0" type="curve"/>
      <point x="158" y="0"/>
      <point x="158" y="0"/>
    </contour>
    <contour>
      <point x="155" y="472" type="curve"/>
      <point x="155" y="472"/>
      <point x="155" y="472"/>
    </contour>
  </outline>
</glyph>
<glyph name="k" format="1">
  <advance width="565"/>
  <unicode hex="006B"/>
  <outline>
    <contour>
      <point x="88" y="0" type="line"/>
      <point x="207" y="0" type="line"/>
      <point x="208" y="750" type="line"/>
      <point x="88" y="670" type="line"/>
    </contour>
    <contour>
      <point x="417" y="1" type="line"/>
      <point x="468.667" y="-0.89688"/>
      <point x="520.333" y="0.350812"/>
      <point x="572" y="1" type="curve"/>
      <point x="314" y="317" type="line"/>
      <point x="220" y="243" type="line"/>
    </contour>
    <contour>
      <point x="470" y="1" type="move"/>
    </contour>
    <contour>
      <point x="208" y="262" type="line"/>
      <point x="238" y="229" type="line"/>
      <point x="518" y="481" type="line"/>
      <point x="444" y="481" type="line"/>
    </contour>
    <contour>
      <point x="181" y="232" type="line"/>
      <point x="249" y="232" type="line"/>
      <point x="249" y="287" type="line"/>
      <point x="181" y="287" type="line"/>
    </contour>
  </outline>
</glyph>
<glyph name="l" format="1">
  <advance width="308"/>
  <unicode hex="006C"/>
  <outline>
    <contour>
      <point x="93" y="0" type="line"/>
      <point x="212" y="0" type="line"/>
      <point x="213" y="771" type="line"/>
      <point x="93" y="691" type="line"/>
    </contour>
  </outline>
</glyph>
<glyph name="p" format="1">
  <advance width="621"/>
  <unicode hex="0070"/>
  <outline>
    <contour>
      <point x="94" y="-225" type="line"/>
      <point x="214" y="-225" type="line"/>
      <point x="214" y="390" type="line"/>
      <point x="211" y="528" type="line"/>
      <point x="94" y="441" type="line"/>
    </contour>
    <contour>
      <point x="362" y="487" type="curve" smooth="yes"/>
      <point x="285" y="487"/>
      <point x="161" y="407"/>
      <point x="152" y="300" type="curve"/>
      <point x="182" y="357"/>
      <point x="267" y="398"/>
      <point x="295" y="398" type="curve" smooth="yes"/>
      <point x="384" y="398"/>
      <point x="456" y="334"/>
      <point x="456" y="199" type="curve" smooth="yes"/>
      <point x="456" y="108"/>
      <point x="405" y="37"/>
      <point x="324" y="37" type="curve" smooth="yes"/>
      <point x="253" y="37"/>
      <point x="213" y="81"/>
      <point x="213" y="176" type="curve"/>
      <point x="105" y="196" type="line"/>
      <point x="105" y="23"/>
      <point x="221" y="-13"/>
      <point x="303" y="-13" type="curve" smooth="yes"/>
      <point x="467" y="-13"/>
      <point x="580" y="111"/>
      <point x="580" y="245" type="curve" smooth="yes"/>
      <point x="580" y="411"/>
      <point x="469" y="487"/>
    </contour>
  </outline>
</glyph>
<glyph name="r" format="1">
  <advance width="406"/>
  <unicode hex="0072"/>
  <outline>
    <contour>
      <point x="96" y="0" type="line"/>
      <point x="216" y="0" type="line"/>
      <point x="216" y="362" type="line"/>
      <point x="186" y="501" type="line"/>
      <point x="96" y="441" type="line"/>
    </contour>
    <contour>
      <point x="271" y="401" type="curve"/>
      <point x="297" y="403"/>
      <point x="305" y="366"/>
      <point x="309" y="339" type="curve"/>
      <point x="416" y="403" type="line"/>
      <point x="416" y="405"/>
      <point x="416" y="408"/>
      <point x="416" y="411" type="curve" smooth="yes"/>
      <point x="416" y="464"/>
      <point x="375" y="489"/>
      <point x="341" y="489" type="curve" smooth="yes"/>
      <point x="261" y="489"/>
      <point x="203" y="396"/>
      <point x="198" y="295" type="curve"/>
      <point x="215" y="240" type="line"/>
      <point x="218" y="311"/>
      <point x="230" y="359"/>
    </contour>
  </outline>
</glyph>
<glyph name="t" format="1">
  <advance width="390"/>
  <unicode hex="0074"/>
  <outline>
    <contour>
      <point x="365" y="415" type="line"/>
      <point x="365" y="479" type="line"/>
      <point x="9" y="479" type="line"/>
      <point x="9" y="415" type="line"/>
    </contour>
    <contour>
      <point x="289" y="82" type="curve" smooth="yes"/>
      <point x="235" y="82"/>
      <point x="197.743" y="125.001"/>
      <point x="198" y="191" type="curve" smooth="yes"/>
      <point x="199" y="448" type="line"/>
      <point x="79" y="448" type="line"/>
      <point x="78" y="174" type="line" smooth="yes"/>
      <point x="78" y="60"/>
      <point x="132" y="-10"/>
      <point x="244" y="-10" type="curve" smooth="yes"/>
      <point x="321" y="-10"/>
      <point x="371" y="36"/>
      <point x="390" y="68" type="curve"/>
      <point x="381" y="108"/>
      <point x="383" y="102"/>
      <point x="379" y="119" type="curve"/>
      <point x="344" y="91"/>
      <point x="320.145" y="82"/>
    </contour>
    <contour>
      <point x="197" y="455" type="line"/>
      <point x="197" y="630" type="line"/>
      <point x="158" y="630" type="line"/>
      <point x="78" y="478" type="line"/>
      <point x="78" y="456" type="line"/>
    </contour>
  </outline>
</glyph>
<glyph name="u" format="1">
  <advance width="597"/>
  <unicode hex="0075"/>
  <outline>
    <contour>
      <point x="293" y="63" type="curve" smooth="yes"/>
      <point x="219" y="63"/>
      <point x="201" y="115"/>
      <point x="200" y="199" type="curve"/>
      <point x="201" y="509" type="line"/>
      <point x="81" y="435" type="line"/>
      <point x="80" y="163" type="line" smooth="yes"/>
      <point x="80" y="49"/>
      <point x="145" y="-11"/>
      <point x="240" y="-11" type="curve" smooth="yes"/>
      <point x="334" y="-11"/>
      <point x="378" y="35"/>
      <point x="410" y="110" type="curve"/>
      <point x="387" y="159" type="line"/>
      <point x="387" y="159"/>
      <point x="389" y="63"/>
    </contour>
    <contour>
      <point x="505" y="509" type="line"/>
      <point x="385" y="435" type="line"/>
      <point x="385" y="104" type="line"/>
      <point x="415" y="-23" type="line"/>
      <point x="505" y="22" type="line"/>
    </contour>
  </outline>
</glyph>
<glyph name="w" format="1">
  <advance width="798"/>
  <unicode hex="0077"/>
  <outline>
    <contour>
      <point x="152" y="479" type="line"/>
      <point x="22" y="479" type="line"/>
      <point x="237" y="-44" type="line"/>
      <point x="295" y="96" type="line"/>
    </contour>
    <contour>
      <point x="236" y="73" type="line"/>
      <point x="255" y="0" type="line"/>
      <point x="453" y="479" type="line"/>
      <point x="393" y="479" type="line"/>
    </contour>
    <contour>
      <point x="470" y="479" type="line"/>
      <point x="340" y="479" type="line"/>
      <point x="555" y="-44" type="line"/>
      <point x="612" y="94" type="line"/>
    </contour>
    <contour>
      <point x="714" y="479" type="move"/>
    </contour>
    <contour>
      <point x="553" y="73" type="line"/>
      <point x="573" y="0" type="line"/>
      <point x="770" y="479" type="line"/>
      <point x="710" y="479" type="line"/>
    </contour>
  </outline>
</glyph>
<glyph name="x" format="1">
  <advance width="545"/>
  <unicode hex="0078"/>
  <outline>
    <contour>
      <point x="171" y="479" type="line"/>
      <point x="31" y="479" type="line"/>
      <point x="372" y="0" type="line"/>
      <point x="519" y="0" type="line"/>
    </contour>
    <contour>
      <point x="439" y="479" type="move"/>
    </contour>
    <contour>
      <point x="431" y="479" type="move"/>
    </contour>
    <contour>
      <point x="108" y="479" type="move"/>
    </contour>
    <contour>
      <point x="100" y="479" type="move"/>
    </contour>
    <contour>
      <point x="240" y="243" type="line"/>
      <point x="304" y="243" type="line"/>
      <point x="504" y="479" type="line"/>
      <point x="432" y="479" type="line"/>
    </contour>
    <contour>
      <point x="437" y="0" type="move"/>
    </contour>
    <contour>
      <point x="435" y="103" type="move"/>
      <point x="435" y="103"/>
      <point x="445" y="0"/>
      <point x="445" y="0" type="curve"/>
    </contour>
    <contour>
      <point x="97" y="0" type="move"/>
      <point x="97" y="0"/>
      <point x="123" y="93"/>
      <point x="123" y="93" type="curve"/>
    </contour>
    <contour>
      <point x="131" y="103" type="move"/>
      <point x="131" y="103"/>
      <point x="105" y="0"/>
      <point x="105" y="0" type="curve"/>
    </contour>
    <contour>
      <point x="33" y="0" type="line"/>
      <point x="117" y="0" type="line"/>
      <point x="285" y="240" type="line"/>
      <point x="225" y="240" type="line"/>
    </contour>
  </outline>
</glyph>
<glyph name="y" format="1">
  <advance width="526"/>
  <unicode hex="0079"/>
  <outline>
    <contour>
      <point x="148" y="479" type="line"/>
      <point x="18" y="479" type="line"/>
      <point x="258" y="-43" type="line"/>
      <point x="321" y="95" type="line"/>
    </contour>
    <contour>
      <point x="446" y="479" type="move"/>
    </contour>
    <contour>
      <point x="438" y="479" type="move"/>
    </contour>
    <contour>
      <point x="95" y="479" type="move"/>
    </contour>
    <contour>
      <point x="87" y="479" type="move"/>
    </contour>
    <contour>
      <point x="207" y="-40" type="line"/>
      <point x="254" y="-71" type="line"/>
      <point x="499" y="479" type="line"/>
      <point x="439" y="479" type="line"/>
    </contour>
    <contour>
      <point x="208" y="-39" type="line"/>
      <point x="196" y="-60"/>
      <point x="127" y="-192"/>
      <point x="49" y="-192" type="curve"/>
      <point x="48" y="-222" type="line"/>
      <point x="142" y="-222"/>
      <point x="191" y="-195"/>
      <point x="254" y="-71" type="curve"/>
    </contour>
  </outline>
</glyph>
<glyph name="oe" format="1">
  <advance width="896"/>
  <unicode hex="0153"/>
  <outline>
    <contour>
      <point x="294" y="442" type="curve" smooth="yes"/>
      <point x="205" y="443"/>
      <point x="181" y="346"/>
      <point x="181" y="239" type="curve" smooth="yes"/>
      <point x="181" y="132"/>
      <point x="205" y="38"/>
      <point x="294" y="38" type="curve" smooth="yes"/>
      <point x="382" y="38"/>
      <point x="407" y="132"/>
      <point x="407" y="239" type="curve" smooth="yes"/>
      <point x="407" y="345"/>
      <point x="382" y="441"/>
    </contour>
    <contour>
      <point x="523" y="309" type="line"/>
      <point x="851" y="309" type="line"/>
      <point x="851" y="259" type="line"/>
      <point x="523" y="259" type="line"/>
    </contour>
    <contour>
      <point x="636" y="-10" type="curve" smooth="yes"/>
      <point x="562" y="-10"/>
      <point x="479" y="23"/>
      <point x="455" y="95" type="curve"/>
      <point x="490" y="95" type="line"/>
      <point x="464" y="21"/>
      <point x="359" y="-9"/>
      <point x="294" y="-10" type="curve"/>
      <point x="143" y="-8"/>
      <point x="45" y="84"/>
      <point x="45" y="238" type="curve" smooth="yes"/>
      <point x="45" y="388"/>
      <point x="145" y="489"/>
      <point x="294" y="489" type="curve" smooth="yes"/>
      <point x="371" y="489"/>
      <point x="444" y="458"/>
      <point x="486" y="395" type="curve"/>
      <point x="464" y="395" type="line"/>
      <point x="505" y="460"/>
      <point x="584" y="489"/>
      <point x="648" y="489" type="curve" smooth="yes"/>
      <point x="734" y="489"/>
      <point x="851" y="444"/>
      <point x="851" y="289" type="curve"/>
      <point x="733" y="309" type="line"/>
      <point x="733" y="397"/>
      <point x="715" y="442"/>
      <point x="641" y="442" type="curve" smooth="yes"/>
      <point x="577" y="442"/>
      <point x="532" y="388"/>
      <point x="532" y="301" type="curve" smooth="yes"/>
      <point x="532" y="280"/>
      <point x="531" y="261"/>
      <point x="531" y="235" type="curve" smooth="yes"/>
      <point x="531" y="128"/>
      <point x="604" y="78"/>
      <point x="680" y="78" type="curve" smooth="yes"/>
      <point x="778" y="78"/>
      <point x="808" y="121"/>
      <point x="847" y="184" type="curve"/>
      <point x="847" y="71"/>
      <point x="741" y="-10"/>
    </contour>
  </outline>
</glyph>
<glyph name="ring" format="1">
  <advance width="833"/>
  <unicode hex="02DA"/>
  <outline>
    <contour>
      <point x="115" y="578" type="curve" smooth="yes"/>
      <point x="115" y="523"/>
      <point x="163" y="497"/>
      <point x="224" y="497" type="curve" smooth="yes"/>
      <point x="285" y="497"/>
      <point x="334" y="523"/>
      <point x="334" y="578" type="curve" smooth="yes"/>
      <point x="334" y="633"/>
      <point x="285" y="660"/>
      <point x="224" y="660" type="curve" smooth="yes"/>
      <point x="163" y="660"/>
      <point x="115" y="633"/>
    </contour>
    <contour>
      <point x="181" y="579" type="curve" smooth="yes"/>
      <point x="181" y="616"/>
      <point x="201" y="628"/>
      <point x="225" y="628" type="curve" smooth="yes"/>
      <point x="249" y="628"/>
      <point x="269" y="616"/>
      <point x="269" y="579" type="curve" smooth="yes"/>
      <point x="269" y="542"/>
      <point x="249" y="531"/>
      <point x="225" y="531" type="curve" smooth="yes"/>
      <point x="201" y="531"/>
      <point x="181" y="542"/>
    </contour>
  </outline>
</glyph>
<glyph name="tilde" format="1">
  <advance width="833"/>
  <unicode hex="02DC"/>
  <outline>
    <contour>
      <point x="240" y="484" type="curve" smooth="yes"/>
      <point x="300" y="485"/>
      <point x="323" y="549"/>
      <point x="326" y="606" type="curve"/>
      <point x="315" y="608" type="line"/>
      <point x="314" y="594"/>
      <point x="301" y="567"/>
      <point x="249" y="567" type="curve" smooth="yes"/>
      <point x="210" y="567"/>
      <point x="165" y="610"/>
      <point x="115" y="610" type="curve" smooth="yes"/>
      <point x="60" y="610"/>
      <point x="31" y="548"/>
      <point x="28" y="491" type="curve"/>
      <point x="39" y="489" type="line"/>
      <point x="40" y="513"/>
      <point x="60" y="530"/>
      <point x="105" y="530" type="curve" smooth="yes"/>
      <point x="155" y="530"/>
      <point x="195" y="483"/>
    </contour>
  </outline>
</glyph>
<glyph name="quotedblleft" format="1">
  <advance width="468"/>
  <unicode hex="201C"/>
  <outline>
    <contour>
      <point x="342" y="597" type="curve" smooth="yes"/>
      <point x="342" y="647"/>
      <point x="377" y="687"/>
      <point x="394" y="710" type="curve" smooth="yes"/>
      <point x="399" y="716"/>
      <point x="399" y="724"/>
      <point x="397" y="728" type="curve" smooth="yes"/>
      <point x="395" y="731"/>
      <point x="384" y="734"/>
      <point x="371" y="727" type="curve"/>
      <point x="346" y="711"/>
      <point x="244" y="634"/>
      <point x="244" y="516" type="curve" smooth="yes"/>
      <point x="244" y="447"/>
      <point x="289" y="406"/>
      <point x="333" y="406" type="curve" smooth="yes"/>
      <point x="384" y="406"/>
      <point x="418" y="443"/>
      <point x="418" y="486" type="curve" smooth="yes"/>
      <point x="418" y="540"/>
      <point x="379" y="555"/>
      <point x="369" y="561" type="curve"/>
      <point x="361" y="562"/>
      <point x="342" y="572"/>
    </contour>
    <contour>
      <point x="128" y="597" type="curve" smooth="yes"/>
      <point x="128" y="647"/>
      <point x="163" y="687"/>
      <point x="180" y="710" type="curve" smooth="yes"/>
      <point x="185" y="716"/>
      <point x="185" y="724"/>
      <point x="183" y="728" type="curve" smooth="yes"/>
      <point x="181" y="731"/>
      <point x="170" y="734"/>
      <point x="157" y="727" type="curve"/>
      <point x="132" y="711"/>
      <point x="30" y="634"/>
      <point x="30" y="516" type="curve" smooth="yes"/>
      <point x="30" y="447"/>
      <point x="75" y="406"/>
      <point x="119" y="406" type="curve" smooth="yes"/>
      <point x="170" y="406"/>
      <point x="204" y="443"/>
      <point x="204" y="486" type="curve" smooth="yes"/>
      <point x="204" y="540"/>
      <point x="165" y="555"/>
      <point x="155" y="561" type="curve"/>
      <point x="147" y="562"/>
      <point x="128" y="572"/>
    </contour>
  </outline>
</glyph>
<glyph name="Euro" format="1">
  <advance width="673"/>
  <unicode hex="20AC"/>
  <outline>
    <contour>
      <point x="613" y="-30" type="line"/>
      <point x="521" y="62" type="line"/>
      <point x="608" y="142" type="line"/>
      <point x="553" y="21"/>
      <point x="488" y="-18"/>
      <point x="404" y="-18" type="curve" smooth="yes"/>
      <point x="233" y="-18"/>
      <point x="124" y="135"/>
      <point x="124" y="337" type="curve" smooth="yes"/>
      <point x="124" y="589"/>
      <point x="228" y="734"/>
      <point x="411" y="734" type="curve" smooth="yes"/>
      <point x="493" y="734"/>
      <point x="575" y="681"/>
      <point x="608" y="571" type="curve"/>
      <point x="521" y="651" type="line"/>
      <point x="613" y="743" type="line"/>
      <point x="613" y="480" type="line"/>
      <point x="588" y="530"/>
      <point x="580" y="552"/>
      <point x="559" y="585" type="curve" smooth="yes"/>
      <point x="526" y="637"/>
      <point x="486" y="679"/>
      <point x="434" y="679" type="curve" smooth="yes"/>
      <point x="334" y="679"/>
      <point x="271" y="552"/>
      <point x="271" y="368" type="curve" smooth="yes"/>
      <point x="271" y="191"/>
      <point x="318" y="37"/>
      <point x="426" y="37" type="curve" smooth="yes"/>
      <point x="503" y="37"/>
      <point x="536" y="89"/>
      <point x="568" y="145" type="curve" smooth="yes"/>
      <point x="585" y="175"/>
      <point x="599" y="206"/>
      <point x="613" y="233" type="curve"/>
    </contour>
    <contour>
      <point x="60" y="464" type="line"/>
      <point x="540" y="464" type="line"/>
      <point x="530" y="404" type="line"/>
      <point x="50" y="404" type="line"/>
    </contour>
    <contour>
      <point x="60" y="310" type="line"/>
      <point x="510" y="310" type="line"/>
      <point x="500" y="250" type="line"/>
      <point x="50" y="250" type="line"/>
    </contour>
  </outline>
</glyph>
<glyph name="acute.uc" format="1">
  <advance width="833"/>
  <outline>
    <contour>
      <point x="229" y="550" type="line"/>
      <point x="246" y="532" type="line"/>
      <point x="525" y="667" type="line"/>
      <point x="511" y="698" type="line"/>
      <point x="384" y="698" type="line"/>
    </contour>
  </outline>
</glyph>
<glyph name="circumflex.uc" format="1">
  <advance width="833"/>
  <outline>
    <contour>
      <point x="578" y="552" type="line"/>
      <point x="578" y="552"/>
      <point x="395" y="720"/>
      <point x="395" y="720" type="curve"/>
      <point x="395" y="720"/>
      <point x="211" y="551"/>
      <point x="211" y="551" type="curve"/>
      <point x="211" y="551"/>
      <point x="226" y="530"/>
      <point x="226" y="530" type="curve"/>
      <point x="226" y="530"/>
      <point x="395" y="610"/>
      <point x="395" y="610" type="curve"/>
      <point x="560" y="530" type="line"/>
    </contour>
  </outline>
</glyph>
<glyph name="dieresis.uc" format="1">
  <advance width="833"/>
  <outline>
    <contour>
      <point x="131" y="644" type="curve" smooth="yes"/>
      <point x="131" y="608"/>
      <point x="160" y="580"/>
      <point x="195" y="580" type="curve" smooth="yes"/>
      <point x="231" y="580"/>
      <point x="260" y="608"/>
      <point x="260" y="644" type="curve" smooth="yes"/>
      <point x="260" y="680"/>
      <point x="231" y="709"/>
      <point x="195" y="709" type="curve" smooth="yes"/>
      <point x="160" y="709"/>
      <point x="131" y="680"/>
    </contour>
    <contour>
      <point x="342" y="644" type="curve" smooth="yes"/>
      <point x="342" y="608"/>
      <point x="370" y="580"/>
      <point x="406" y="580" type="curve" smooth="yes"/>
      <point x="441" y="580"/>
      <point x="471" y="608"/>
      <point x="471" y="644" type="curve" smooth="yes"/>
      <point x="471" y="680"/>
      <point x="441" y="709"/>
      <point x="406" y="709" type="curve" smooth="yes"/>
      <point x="370" y="709"/>
      <point x="342" y="680"/>
    </contour>
  </outline>
</glyph>
